<svg xmlns="http://www.w3.org/2000/svg" viewBox="0 0 500 500"><g id="freepik--background-simple--inject-33"><path d="M462.89,214.86c-4.94,41.8-24,90.4-62.14,112.73-57.6,33.74-52.78,85.63-165.2,108.2a231.17,231.17,0,0,1-49.84,4.7,191.28,191.28,0,0,1-24.47-2c-71.44-10.44-119.53-60.1-137.17-120C.86,239.6,47.21,188,77.94,156.88s53.22-128,163.56-151A224.93,224.93,0,0,1,292.73,1c39.26,1,82.08,13.86,111.71,40.77q3.35,3,6.5,6.27C452.12,90.27,469.62,157.87,462.89,214.86Z" style="fill:#D2691E"></path><path d="M462.89,214.86c-4.94,41.8-24,90.4-62.14,112.73-57.6,33.74-52.78,85.63-165.2,108.2a231.17,231.17,0,0,1-49.84,4.7,191.28,191.28,0,0,1-24.47-2c-71.44-10.44-119.53-60.1-137.17-120C.86,239.6,47.21,188,77.94,156.88s53.22-128,163.56-151A224.93,224.93,0,0,1,292.73,1c39.26,1,82.08,13.86,111.71,40.77q3.35,3,6.5,6.27C452.12,90.27,469.62,157.87,462.89,214.86Z" style="fill:#fff;opacity:0.7000000000000001"></path></g><g id="freepik--Plants--inject-33"><g style="opacity:0.15"><path d="M372.2,97.79c2,3.71,9.68,9.32,9.68,9.33s2.18-6.16,2.27-6.57c1-4.72.18-14.42-4.5-17.12a6.39,6.39,0,0,0-8.95,3.21C369.14,90.12,370.47,94.63,372.2,97.79Z"></path><path d="M342.85,214.52c-.11.19-.2.37-.3.56l1.94,3.29c.4-.78.8-1.58,1.21-2.4,1.16-2.32,2.35-4.83,3.55-7.42a68.75,68.75,0,0,0,8,1.76c.37,4.06,3.84,11.16,4.29,12.07-2.21,1.29-4.37,2.52-6.43,3.65L351,228.26l2.84,2.19,2.84-1.63c2.25-1.3,4.63-2.73,7.06-4.23.68.79,6.23,7.2,9.83,8.88,3.27,1.51,7.86,2.54,11.22.75a6.39,6.39,0,0,0,2.6-9.15c-3-4.49-12.74-4.66-17.38-3.33-.27.07-3.15,1.25-5,2,1-.62,2-1.2,3-1.85,2-1.27,4-2.59,6.09-4l3-2.18c1-.71,2-1.58,3.05-2.38,2.34-1.89,4.61-3.92,6.86-6,1.11,1.75,5.15,7.93,8.16,9.93s7.38,3.7,11,2.44a6.4,6.4,0,0,0,4-8.65c-2.29-4.89-11.9-6.53-16.68-5.92-.3,0-3.69.85-5.54,1.34,1.35-1.27,2.69-2.53,4-3.86,3.8-3.83,7.52-7.84,11.26-11.81,1.14-1.22,2.29-2.42,3.44-3.62.39.63,5,8.07,8.41,10.31,3,2,7.38,3.7,11,2.44A6.39,6.39,0,0,0,430,191.3c-2.29-4.89-11.89-6.53-16.68-5.92-.36,0-5.22,1.23-6.45,1.6,2.54-2.66,5.08-5.28,7.7-7.76a113,113,0,0,1,11.18-9.4c.18.29,5,8.08,8.45,10.38,3,2,7.37,3.7,11,2.44a6.39,6.39,0,0,0,4-8.65c-2.29-4.89-11.89-6.53-16.68-5.92-.37,0-5.61,1.33-6.55,1.63.23-.17.45-.37.68-.53a82.77,82.77,0,0,1,12.72-7.24c2.44-1.15,4.84-2.12,7.19-3,.75,1.55,4.24,8.56,7.12,11s6.93,4.49,10.65,3.63a6.4,6.4,0,0,0,4.88-8.16c-1.74-5.12-11.11-7.8-15.93-7.72-.26,0-2.92.34-4.86.62,1.07-.39,2.17-.81,3.2-1.15,3.87-1.32,7.49-2.29,10.7-3.12,1.83-.45,3.5-.83,5.06-1.17,1.52,1.13,7.72,5.62,11.32,6.42s8.22.79,11.12-1.68a6.4,6.4,0,0,0,.57-9.5c-3.9-3.74-13.44-1.81-17.69.49-.37.19-5.75,3.95-5.67,4l.09.07c-1.51.29-3.12.63-4.88,1-3.24.76-6.89,1.65-10.8,2.89a114.23,114.23,0,0,0-12.43,4.59,83.26,83.26,0,0,0-13,7.05l-.14.11c1-1.24,3.64-4.79,3.81-5.08,2.43-4.17,4.67-13.65,1.06-17.67a6.39,6.39,0,0,0-9.51.26c-2.56,2.82-2.7,7.51-2,11.06.75,4,5.81,11.2,6.21,11.77a113.38,113.38,0,0,0-11.77,9.46c-2.17,2-4.3,4-6.41,6.12.82-1.1,1.55-2.09,1.63-2.24,2.43-4.16,4.68-13.64,1.07-17.66a6.38,6.38,0,0,0-9.51.26c-2.57,2.82-2.71,7.51-2,11.05s4.86,9.83,6,11.47c-.8.8-1.61,1.6-2.4,2.42-3.82,3.89-7.62,7.8-11.47,11.52-1.35,1.31-2.73,2.55-4.11,3.8.73-1,1.33-1.8,1.41-1.94,2.43-4.17,4.68-13.65,1.07-17.67a6.4,6.4,0,0,0-9.51.26c-2.57,2.82-2.71,7.52-2,11.06s4.46,9.22,5.79,11.17c-1.45,1.23-2.9,2.47-4.36,3.6-1,.75-1.94,1.54-3,2.24l-3.07,2.11c-2,1.27-4.07,2.6-6.05,3.79-1.38.84-2.71,1.61-4,2.39,1.36-1.29,4-3.87,4.17-4.11a24.73,24.73,0,0,0,4.74-11.59,8.28,8.28,0,0,0,.79-1.17,6.39,6.39,0,0,0-2.88-9.07c-5-2.09-13.2,3.15-16.33,6.81-.19.22-1.93,2.79-3,4.43.48-1.06,1-2.09,1.45-3.18,1-2.17,1.89-4.35,2.88-6.7.44-1.15.88-2.32,1.32-3.49s.82-2.44,1.23-3.66c.91-2.87,1.69-5.82,2.41-8.81,1.89.86,8.67,3.78,12.29,3.78s8.19-1,10.5-4a6.39,6.39,0,0,0-1.47-9.4c-4.61-2.82-13.53,1.11-17.18,4.26-.23.19-2.6,2.75-3.88,4.17.42-1.8.85-3.59,1.21-5.42,1-5.3,1.95-10.69,2.87-16.06.28-1.65.58-3.29.88-4.93.67.31,8.65,4,12.7,4,3.6,0,8.19-1,10.5-4a6.39,6.39,0,0,0-1.47-9.4c-4.61-2.82-13.53,1.11-17.18,4.26-.28.24-3.68,3.92-4.5,4.89.65-3.61,1.33-7.2,2.14-10.72a112.65,112.65,0,0,1,4.14-14c.31.15,8.62,4,12.77,4,3.61,0,8.2-1,10.5-4a6.39,6.39,0,0,0-1.47-9.4c-4.61-2.82-13.52,1.11-17.18,4.26-.29.25-3.95,4.21-4.56,5,.1-.26.17-.55.28-.81a82.25,82.25,0,0,1,6.61-13.06c1.4-2.3,2.87-4.43,4.34-6.47,1.47.87,8.25,4.8,12,5.22,3.58.4,8.25-.08,10.88-2.84a6.4,6.4,0,0,0-.43-9.51c-4.27-3.3-13.57-.38-17.54,2.35-.22.15-2.26,1.9-3.72,3.19.68-.91,1.37-1.86,2-2.72,2.5-3.23,5-6,7.21-8.5,1.28-1.39,2.46-2.62,3.58-3.76,1.89.1,9.53.42,13-.9s7.29-3.87,8.35-7.54a6.39,6.39,0,0,0-4.77-8.23c-5.31-1-12.21,5.91-14.49,10.16-.19.37-2.61,6.47-2.51,6.48h.12c-1.1,1.07-2.26,2.24-3.51,3.54-2.28,2.43-4.84,5.18-7.42,8.37a114.05,114.05,0,0,0-7.84,10.69,83.32,83.32,0,0,0-7,13.07,1.77,1.77,0,0,1-.06.17c.15-1.58.39-6,.38-6.34-.28-4.82-3.63-14-8.86-15.33a6.4,6.4,0,0,0-7.79,5.47c-.58,3.77,1.89,7.76,4.4,10.35,2.82,2.92,11,6.14,11.68,6.39a112.82,112.82,0,0,0-4.61,14.38c-.72,2.85-1.36,5.74-2,8.64.08-1.37.14-2.59.13-2.76-.27-4.82-3.63-14-8.86-15.33a6.39,6.39,0,0,0-7.78,5.47c-.59,3.76,1.88,7.76,4.39,10.35s9.48,5.51,11.32,6.25c-.22,1.12-.45,2.23-.66,3.35-1,5.36-2.06,10.71-3.21,15.93-.41,1.84-.87,3.64-1.33,5.44.07-1.22.11-2.24.1-2.4-.27-4.81-3.63-14-8.85-15.32a6.39,6.39,0,0,0-7.79,5.46c-.59,3.77,1.89,7.76,4.39,10.35s8.81,5.23,11,6.12c-.53,1.83-1.06,3.66-1.65,5.41-.43,1.18-.77,2.36-1.27,3.52l-1.4,3.46c-1,2.16-2,4.41-3,6.49-.68,1.46-1.36,2.84-2,4.23.43-1.83,1.18-5.42,1.21-5.73.46-4.8-1.47-14.35-6.43-16.49a6.4,6.4,0,0,0-8.53,4.22c-1.15,3.64.69,8,2.78,10.9,2.3,3.23,9.59,7.52,10.51,8C345.07,210.22,343.94,212.44,342.85,214.52Z"></path><path d="M446.88,158c0,.1,5.22-3.94,5.51-4.23,3.45-3.37,8.12-11.93,5.7-16.76a6.39,6.39,0,0,0-9.24-2.26c-3.22,2-4.6,6.54-4.89,10.13C443.61,149.08,446.88,158,446.88,158Z"></path></g><g style="opacity:0.15"><path d="M126.87,97.79c-2,3.71-9.67,9.32-9.68,9.33s-2.17-6.16-2.26-6.57c-1-4.72-.19-14.42,4.49-17.12a6.4,6.4,0,0,1,9,3.21C129.94,90.12,128.61,94.63,126.87,97.79Z"></path><path d="M156.23,214.52l.3.56-1.95,3.29-1.2-2.4c-1.16-2.32-2.36-4.83-3.56-7.42a67.71,67.71,0,0,1-8,1.76c-.36,4.06-3.83,11.16-4.29,12.07,2.21,1.29,4.38,2.52,6.44,3.65q2.12,1.17,4.1,2.23l-2.84,2.19-2.84-1.63c-2.25-1.3-4.63-2.73-7.06-4.23-.67.79-6.22,7.2-9.83,8.88-3.27,1.51-7.85,2.54-11.22.75a6.4,6.4,0,0,1-2.6-9.15c3-4.49,12.75-4.66,17.39-3.33.27.07,3.14,1.25,4.94,2-1-.62-1.95-1.2-3-1.85-2-1.27-4-2.59-6.1-4l-3-2.18c-1-.71-2-1.58-3-2.38-2.34-1.89-4.61-3.92-6.86-6-1.11,1.75-5.15,7.93-8.17,9.93s-7.37,3.7-11,2.44a6.39,6.39,0,0,1-4-8.65c2.29-4.89,11.89-6.53,16.68-5.92.3,0,3.68.85,5.53,1.34-1.34-1.27-2.68-2.53-4-3.86-3.8-3.83-7.52-7.84-11.25-11.81-1.14-1.22-2.3-2.42-3.45-3.62-.39.63-5,8.07-8.4,10.31-3,2-7.38,3.7-11,2.44a6.39,6.39,0,0,1-4-8.65c2.29-4.89,11.9-6.53,16.68-5.92.36,0,5.23,1.23,6.45,1.6-2.53-2.66-5.08-5.28-7.7-7.76a111.71,111.71,0,0,0-11.17-9.4c-.18.29-5,8.08-8.45,10.38-3,2-7.38,3.7-11,2.44A6.39,6.39,0,0,1,50,174c2.29-4.89,11.89-6.53,16.68-5.92.37,0,5.61,1.33,6.54,1.63-.23-.17-.45-.37-.68-.53a82.22,82.22,0,0,0-12.71-7.24c-2.45-1.15-4.84-2.12-7.2-3-.74,1.55-4.24,8.56-7.12,11s-6.92,4.49-10.64,3.63A6.38,6.38,0,0,1,30,165.36c1.74-5.12,11.1-7.8,15.92-7.72.27,0,2.93.34,4.86.62-1.07-.39-2.16-.81-3.19-1.15-3.87-1.32-7.49-2.29-10.71-3.12-1.83-.45-3.49-.83-5.06-1.17-1.52,1.13-7.71,5.62-11.32,6.42s-8.21.79-11.12-1.68a6.4,6.4,0,0,1-.57-9.5c3.9-3.74,13.45-1.81,17.69.49.37.19,5.75,3.95,5.67,4l-.09.07c1.51.29,3.13.63,4.88,1,3.24.76,6.9,1.65,10.81,2.89a115,115,0,0,1,12.43,4.59,83.62,83.62,0,0,1,13,7.05l.15.11c-1-1.24-3.64-4.79-3.81-5.08-2.43-4.17-4.68-13.65-1.07-17.67a6.39,6.39,0,0,1,9.51.26c2.57,2.82,2.71,7.51,2,11.06-.75,4-5.81,11.2-6.22,11.77a113.48,113.48,0,0,1,11.78,9.46c2.17,2,4.3,4,6.4,6.12-.82-1.1-1.54-2.09-1.63-2.24-2.43-4.16-4.67-13.64-1.07-17.66a6.38,6.38,0,0,1,9.51.26c2.57,2.82,2.71,7.51,2.05,11.05s-4.87,9.83-6,11.47c.8.8,1.61,1.6,2.41,2.42,3.82,3.89,7.62,7.8,11.46,11.52,1.35,1.31,2.73,2.55,4.11,3.8-.72-1-1.33-1.8-1.41-1.94-2.43-4.17-4.67-13.65-1.07-17.67a6.41,6.41,0,0,1,9.52.26c2.56,2.82,2.7,7.52,2,11.06s-4.46,9.22-5.8,11.17c1.45,1.23,2.9,2.47,4.36,3.6,1,.75,1.94,1.54,3,2.24l3.08,2.11c2,1.27,4.06,2.6,6.05,3.79,1.37.84,2.7,1.61,4,2.39-1.36-1.29-4-3.87-4.17-4.11a24.83,24.83,0,0,1-4.73-11.59A8.35,8.35,0,0,1,127,205a6.39,6.39,0,0,1,2.88-9.07c5-2.09,13.2,3.15,16.34,6.81.18.22,1.93,2.79,3,4.43-.49-1.06-1-2.09-1.46-3.18-1-2.17-1.88-4.35-2.87-6.7-.44-1.15-.88-2.32-1.33-3.49s-.81-2.44-1.23-3.66c-.9-2.87-1.68-5.82-2.4-8.81-1.9.86-8.67,3.78-12.29,3.78s-8.2-1-10.5-4a6.39,6.39,0,0,1,1.47-9.4c4.61-2.82,13.52,1.11,17.18,4.26.23.19,2.6,2.75,3.87,4.17-.42-1.8-.84-3.59-1.21-5.42-1-5.3-1.95-10.69-2.87-16.06-.28-1.65-.58-3.29-.87-4.93-.67.31-8.65,4-12.7,4-3.61,0-8.2-1-10.5-4a6.39,6.39,0,0,1,1.47-9.4c4.61-2.82,13.52,1.11,17.18,4.26.27.24,3.68,3.92,4.5,4.89-.65-3.61-1.33-7.2-2.14-10.72a112.65,112.65,0,0,0-4.14-14c-.32.15-8.62,4-12.78,4-3.6,0-8.19-1-10.5-4a6.39,6.39,0,0,1,1.47-9.4c4.61-2.82,13.53,1.11,17.18,4.26.29.25,4,4.21,4.56,5-.1-.26-.17-.55-.27-.81a83.1,83.1,0,0,0-6.61-13.06c-1.4-2.3-2.87-4.43-4.34-6.47-1.48.87-8.26,4.8-12,5.22s-8.26-.08-10.88-2.84a6.4,6.4,0,0,1,.43-9.51c4.27-3.3,13.56-.38,17.54,2.35.22.15,2.25,1.9,3.71,3.19-.68-.91-1.36-1.86-2-2.72-2.5-3.23-5-6-7.21-8.5-1.28-1.39-2.46-2.62-3.57-3.76-1.9.1-9.54.42-13-.9s-7.28-3.87-8.34-7.54a6.39,6.39,0,0,1,4.76-8.23c5.32-1,12.21,5.91,14.49,10.16.2.37,2.61,6.47,2.51,6.48h-.11c1.1,1.07,2.26,2.24,3.51,3.54,2.28,2.43,4.83,5.18,7.41,8.37a112.3,112.3,0,0,1,7.84,10.69,83.32,83.32,0,0,1,7,13.07l.06.17c-.14-1.58-.39-6-.37-6.34.27-4.82,3.63-14,8.86-15.33a6.39,6.39,0,0,1,7.78,5.47c.59,3.77-1.88,7.76-4.39,10.35-2.83,2.92-11,6.14-11.68,6.39A114.43,114.43,0,0,1,134,142.31c.72,2.85,1.36,5.74,2,8.64-.07-1.37-.13-2.59-.13-2.76.28-4.82,3.64-14,8.86-15.33a6.4,6.4,0,0,1,7.79,5.47c.59,3.76-1.89,7.76-4.39,10.35s-9.48,5.51-11.33,6.25c.22,1.12.45,2.23.67,3.35,1,5.36,2.05,10.71,3.21,15.93.4,1.84.87,3.64,1.33,5.44-.07-1.22-.12-2.24-.11-2.4.27-4.81,3.63-14,8.86-15.32a6.4,6.4,0,0,1,7.79,5.46c.58,3.77-1.89,7.76-4.4,10.35s-8.8,5.23-11,6.12c.53,1.83,1.05,3.66,1.65,5.41.43,1.18.76,2.36,1.26,3.52l1.4,3.46c1,2.16,2,4.41,3,6.49.69,1.46,1.37,2.84,2,4.23-.43-1.83-1.19-5.42-1.22-5.73-.46-4.8,1.48-14.35,6.44-16.49a6.39,6.39,0,0,1,8.52,4.22c1.15,3.64-.69,8-2.77,10.9-2.3,3.23-9.6,7.52-10.51,8C154,210.22,155.13,212.44,156.23,214.52Z"></path><path d="M52.19,158c0,.1-5.21-3.94-5.51-4.23C43.24,150.39,38.57,141.83,41,137a6.39,6.39,0,0,1,9.24-2.26c3.22,2,4.59,6.54,4.89,10.13C55.47,149.08,52.19,158,52.19,158Z"></path></g></g><g id="freepik--Book--inject-33"><rect x="117.48" y="24.18" width="239.25" height="342.09" style="fill:#D2691E"></rect><path d="M356.73,366.77H117.48a.5.5,0,0,1-.5-.5V24.18a.51.51,0,0,1,.5-.5H356.73a.5.5,0,0,1,.5.5V366.27A.5.5,0,0,1,356.73,366.77Zm-238.75-1H356.23V24.68H118Z" style="fill:#263238"></path><rect x="117.48" y="64.46" width="31.6" height="8.65" style="fill:#263238"></rect><rect x="117.48" y="45.01" width="31.6" height="8.65" style="fill:#263238"></rect><rect x="117.48" y="329.58" width="31.6" height="8.65" style="fill:#263238"></rect><rect x="117.48" y="310.12" width="31.6" height="8.65" style="fill:#263238"></rect><path d="M142.07,24.18H373.44a7.88,7.88,0,0,1,7.88,7.88V358.38a7.88,7.88,0,0,1-7.88,7.88H142.07a0,0,0,0,1,0,0V24.18A0,0,0,0,1,142.07,24.18Z" style="fill:#D2691E"></path><path d="M373.44,366.77H142.07a.5.5,0,0,1-.5-.5V24.18a.5.5,0,0,1,.5-.5H373.44a8.4,8.4,0,0,1,8.38,8.39V358.38A8.39,8.39,0,0,1,373.44,366.77Zm-230.87-1H373.44a7.39,7.39,0,0,0,7.38-7.39V32.07a7.4,7.4,0,0,0-7.38-7.39H142.57Z" style="fill:#263238"></path><path d="M218.21,128.13V88.32H222V106h12.53V88.32h3.74v39.81h-3.74V108.77H222v19.36Z" style="fill:#263238"></path><path d="M254.62,128.62a10.73,10.73,0,0,1-6.17-1.55,8.13,8.13,0,0,1-3.14-4.32,20.32,20.32,0,0,1-.91-6.37V99.87a18.69,18.69,0,0,1,1-6.31,8,8,0,0,1,3.19-4.15,10.84,10.84,0,0,1,6.07-1.48,11,11,0,0,1,6.12,1.48,8,8,0,0,1,3.17,4.15,19.24,19.24,0,0,1,.93,6.31v16.56a20.08,20.08,0,0,1-.91,6.34,8.14,8.14,0,0,1-3.12,4.3A10.69,10.69,0,0,1,254.62,128.62Zm0-3a6.57,6.57,0,0,0,4-1.05,5.35,5.35,0,0,0,1.89-2.95,16.55,16.55,0,0,0,.52-4.4v-18a16.26,16.26,0,0,0-.52-4.37,5.08,5.08,0,0,0-1.89-2.87,8.51,8.51,0,0,0-8,0,5.06,5.06,0,0,0-1.91,2.87,16.26,16.26,0,0,0-.52,4.37v18a16.55,16.55,0,0,0,.52,4.4,5.33,5.33,0,0,0,1.91,2.95A6.6,6.6,0,0,0,254.62,125.62Z" style="fill:#263238"></path><path d="M271,128.13V88.32h3.74v37h11.3v2.8Z" style="fill:#263238"></path><path d="M292.8,128.13V114.91l-9-26.59h3.64l7.17,22.12,6.88-22.12h3.69l-8.75,26.59v13.22Z" style="fill:#263238"></path><path d="M169.76,212V142.66h17a37.4,37.4,0,0,1,8.35.86,17,17,0,0,1,6.42,2.86,13,13,0,0,1,4.15,5.44,22.24,22.24,0,0,1,1.46,8.65,20,20,0,0,1-1.16,7.19,10.88,10.88,0,0,1-3.38,4.75,12.38,12.38,0,0,1-5.57,2.35,14.36,14.36,0,0,1,6.81,2.87,13.08,13.08,0,0,1,4,5.69,23.93,23.93,0,0,1,1.33,8.48,28.22,28.22,0,0,1-1.24,8.77,16.33,16.33,0,0,1-3.68,6.34,15.53,15.53,0,0,1-6.08,3.81A25.76,25.76,0,0,1,189.7,212Zm12.67-41h4.28a12.42,12.42,0,0,0,5.82-1.12,6,6,0,0,0,2.87-3.42,17.81,17.81,0,0,0,.81-5.82,11,11,0,0,0-1.24-5.7,6.29,6.29,0,0,0-3.73-2.74,23.16,23.16,0,0,0-6.33-.72h-2.48Zm0,32.1h4.79q5.73,0,7.79-2.78t2.05-8.61a19.54,19.54,0,0,0-1-6.8,7.29,7.29,0,0,0-3.25-3.9,12.34,12.34,0,0,0-6-1.28h-4.36Z" style="fill:#263238"></path><path d="M217.78,212V142.66h12.5V212Z" style="fill:#263238"></path><path d="M241,212V142.66h17a37.31,37.31,0,0,1,8.34.86,17,17,0,0,1,6.42,2.86,13,13,0,0,1,4.15,5.44,22.24,22.24,0,0,1,1.46,8.65,20,20,0,0,1-1.16,7.19,10.8,10.8,0,0,1-3.38,4.75,12.34,12.34,0,0,1-5.56,2.35,14.28,14.28,0,0,1,6.8,2.87,13.18,13.18,0,0,1,4,5.69,24.17,24.17,0,0,1,1.32,8.48,28.22,28.22,0,0,1-1.24,8.77,16.21,16.21,0,0,1-3.68,6.34,15.46,15.46,0,0,1-6.08,3.81,25.7,25.7,0,0,1-8.51,1.28Zm12.67-41h4.28a12.42,12.42,0,0,0,5.82-1.12,6,6,0,0,0,2.87-3.42,17.81,17.81,0,0,0,.81-5.82,10.89,10.89,0,0,0-1.24-5.7,6.29,6.29,0,0,0-3.72-2.74,23.29,23.29,0,0,0-6.34-.72h-2.48Zm0,32.1h4.79c3.83,0,6.42-.93,7.79-2.78s2.06-4.73,2.06-8.61a19.51,19.51,0,0,0-1-6.8,7.25,7.25,0,0,0-3.25-3.9,12.27,12.27,0,0,0-6-1.28h-4.37Z" style="fill:#263238"></path><path d="M288.66,212V142.66h12.67v60.61h16.78V212Z" style="fill:#263238"></path><path d="M324.36,212V142.66h29.11v8.9H337v19.95H350v8.82H337v22.94h16.61V212Z" style="fill:#263238"></path></g></svg>